<svg xmlns="http://www.w3.org/2000/svg" viewBox="0 0 1332.22 2183.98"><defs><style>.cls-1{opacity:0.5;}.cls-2{fill:#ffc771;}</style></defs><g id="圖層_1" data-name="圖層 1"><g class="cls-1"><path class="cls-2" d="M14.52,2.92c140.74,23.62,278.82,63.59,409.7,120.63,61.15,26.66,121.63,56.39,178,92.1,53.41,33.8,105.05,73.85,143.48,124.55,34.13,45,55.66,99.23,49.1,156.4-6.94,60.49-40.38,113.62-69.54,165.61-26.43,47.13-53.77,98.59-54.21,154-.38,48.38,22.51,91.51,56.12,125.14,38.75,38.8,88.11,66.12,137.46,89,61.81,28.66,126.5,50.35,190.22,74.26,110.16,41.33,284.95,106,274.18,251.87-4.75,64.34-42.39,118-84.79,164-39.85,43.23-85.12,81.31-132.68,115.77-101.23,73.34-213.28,131.55-328,180.55-117.94,50.36-241,86.28-360.83,131.68-122.32,46.37-243.25,100.66-350.37,176.57q-37.3,26.43-71.87,56.42c-1.46,1.27.67,3.39,2.12,2.13,102-88.66,223.25-151.7,347.45-203.15,121.7-50.43,248.32-86.86,370.88-134.83,117.19-45.86,231.65-100.81,337.4-169.28,49.81-32.26,97.76-67.72,141.65-107.73,41.77-38.07,84-81.15,109.33-132.29,25.76-52.08,33-114.06,4.91-166.77-28.53-53.53-83.48-88.93-136.08-115.62-121.89-61.86-259.15-89.52-376.88-160.15-46.16-27.7-92.09-63.95-114.26-114.51C663.08,824.7,677,766.38,701.24,714.58c25.09-53.5,60-102.13,81.22-157.49,19.84-51.79,22.47-106.45,1-158.18-21.79-52.62-61.89-96-105.14-132-49.36-41.11-104.89-73.84-161.92-103C390.78,99.56,256.7,51.89,119.13,20.5Q67.53,8.73,15.31,0c-1.88-.31-2.7,2.58-.79,2.9Z"/></g></g></svg>